# xmcd
#
# Track frame offsets: 
#        150
#        10646
#        14761
#        20394
#        31796
#        34859
#        42214
#        47905
#        53782
#        66011
#        71478
#        75746
#        87234
#        89659
#        96026
#        99916
#        108778
#        119417
#        130195
#        141413
#
# Disc length: 2028 seconds
#
# Revision: 0
# Processed by: cddbd v1.5.2PL0 Copyright (c) Steve Scherf et al.
# Submitted via: ExactAudioCopy v1.1
#
DISCID=0207ea14
DTITLE=Merle Travis - CD3_3 Classic Albums +Singles 1949-56
DYEAR=2016
DGENRE=Country
TTITLE0=Little david play on your harp
TTITLE1=Thumbing the bass
TTITLE2=Cane break blues
TTITLE3=Darby's ram
TTITLE4=Everlys rag
TTITLE5=Rose time
TTITLE6=Old aunt dinah
TTITLE7=Pigmeat stomp
TTITLE8=Dry bread
TTITLE9=Louisville clog
TTITLE10=Green bay polka
TTITLE11=Jordan am a hard road to travel
TTITLE12=Travis trot
TTITLE13=Cannonball stomp
TTITLE14=Fuller blues
TTITLE15=Take my hand precious lord
TTITLE16=Lost John Boogie
TTITLE17=Let's Settle Down
TTITLE18=Faithful Fool
TTITLE19=Done Rovin'
EXTD=
EXTT0=
EXTT1=
EXTT2=
EXTT3=
EXTT4=
EXTT5=
EXTT6=
EXTT7=
EXTT8=
EXTT9=
EXTT10=
EXTT11=
EXTT12=
EXTT13=
EXTT14=
EXTT15=
EXTT16=
EXTT17=
EXTT18=
EXTT19=
PLAYORDER=
